# xmcd
#
# Track frame offsets:
#	150
#	18773
#	38540
#	56667
#	75201
#	89170
#	110198
#	126170
#	140637
#	160641
#	175339
#	194026
#	210915
#	231828
#	248913
#	263466
#	279649
#	295286
#	310676
#
# Disc length: 4353 seconds
#
# Revision: 1
# Processed by: cddbd v1.5.1PL0 Copyright (c) Steve Scherf et al.
# Submitted via: audiograbber 1.83.01
#
DISCID=0910ff13
DTITLE=EVERLAST - White Trash Beatiful
DYEAR=2004
DGENRE=Acoustic
TTITLE0=Blinded By The Sun
TTITLE1=Broken
TTITLE2=White Trash Beatiful
TTITLE3=Sleeping Alone
TTITLE4=The Warning
TTITLE5=This Kind Of Lonely
TTITLE6=Soul Music
TTITLE7=Angel
TTITLE8=God Wanna
TTITLE9=Lonely Road
TTITLE10=Two Pieces Of Drama
TTITLE11=Sad Girl
TTITLE12=Pain
TTITLE13=Kicking Away
TTITLE14=Maybe
TTITLE15=Love For Real (Remix)
TTITLE16=One Two (feat.Kuruht)
TTITLE17=Shook Ones (with Mobb Deep)
TTITLE18=Faith (Everlast Remix)
EXTD=
EXTT0=
EXTT1=
EXTT2=
EXTT3=
EXTT4=
EXTT5=
EXTT6=
EXTT7=
EXTT8=
EXTT9=
EXTT10=
EXTT11=
EXTT12=
EXTT13=
EXTT14=
EXTT15=
EXTT16=
EXTT17=
EXTT18=
PLAYORDER=
